<?xml version="1.0" encoding="UTF-8" standalone="no"?>
<!-- Created with Inkscape (http://www.inkscape.org/) -->
<svg xmlns:dc="http://purl.org/dc/elements/1.1/" xmlns:cc="http://creativecommons.org/ns#" xmlns:rdf="http://www.w3.org/1999/02/22-rdf-syntax-ns#" xmlns:svg="http://www.w3.org/2000/svg" xmlns="http://www.w3.org/2000/svg" xmlns:sodipodi="http://sodipodi.sourceforge.net/DTD/sodipodi-0.dtd" xmlns:inkscape="http://www.inkscape.org/namespaces/inkscape" width="297mm" height="210mm" viewBox="0 0 1052.3622 744.09448" id="svg5108" version="1.1" inkscape:version="0.91 r13725" sodipodi:docname="he2b.svg">
  <defs id="defs5110"/>
  <sodipodi:namedview id="base" pagecolor="#ffffff" bordercolor="#666666" borderopacity="1.0" inkscape:pageopacity="0.0" inkscape:pageshadow="2" inkscape:zoom="0.98994949" inkscape:cx="505.25121" inkscape:cy="370.1845" inkscape:document-units="px" inkscape:current-layer="layer1" showgrid="false" inkscape:window-width="1920" inkscape:window-height="1000" inkscape:window-x="0" inkscape:window-y="0" inkscape:window-maximized="1"/>
  <metadata id="metadata5113">
    <rdf:RDF>
      <cc:Work rdf:about="">
        <dc:format>image/svg+xml</dc:format>
        <dc:type rdf:resource="http://purl.org/dc/dcmitype/StillImage"/>
        <dc:title/>
      </cc:Work>
    </rdf:RDF>
  </metadata>
  <g inkscape:label="Calque 1" inkscape:groupmode="layer" id="layer1" transform="translate(0,-308.26772)">
    <path d="m 545.23854,663.59365 -18.84211,0 0,-27.44263 18.84211,0 0,27.44263 z" style="fill:#ec008c;fill-opacity:1;fill-rule:nonzero;stroke:none" id="path56" inkscape:connector-curvature="0"/>
    <path d="m 526.39643,663.59365 -18.84211,0 0,-27.44263 18.84211,0 0,27.44263 z" style="fill:#fc6200;fill-opacity:1;fill-rule:nonzero;stroke:none" id="path58" inkscape:connector-curvature="0"/>
    <path d="m 564.07776,663.59365 -18.84211,0 0,-27.44263 18.84211,0 0,27.44263 z" style="fill:#9026b0;fill-opacity:1;fill-rule:nonzero;stroke:none" id="path60" inkscape:connector-curvature="0"/>
    <path d="m 639.44306,663.59365 -18.84211,0 0,-27.44263 18.84211,0 0,27.44263 z" style="fill:#bdd100;fill-opacity:1;fill-rule:nonzero;stroke:none" id="path62" inkscape:connector-curvature="0"/>
    <path d="m 620.60095,663.59365 -18.84211,0 0,-27.44263 18.84211,0 0,27.44263 z" style="fill:#91d100;fill-opacity:1;fill-rule:nonzero;stroke:none" id="path64" inkscape:connector-curvature="0"/>
    <path d="m 601.76186,663.59365 -18.84211,0 0,-27.44263 18.84211,0 0,27.44263 z" style="fill:#4ec6e0;fill-opacity:1;fill-rule:nonzero;stroke:none" id="path66" inkscape:connector-curvature="0"/>
    <path d="m 582.91975,663.59365 -18.84199,0 0,-27.44263 18.84199,0 0,27.44263 z" style="fill:#006dc6;fill-opacity:1;fill-rule:nonzero;stroke:none" id="path68" inkscape:connector-curvature="0"/>
    <path d="m 507.55432,663.59365 -18.84211,0 0,-27.44263 18.84211,0 0,27.44263 z" style="fill:#ffb000;fill-opacity:1;fill-rule:nonzero;stroke:none" id="path70" inkscape:connector-curvature="0"/>
    <g id="g72" transform="matrix(3.0166685,0,0,-3.0166685,176.52516,543.54622)">
      <path d="m 0,0 -24.646,0 0,29.898 -19.091,0 0,-77.683 19.091,0 0,30.768 24.646,0 0,-30.768 19.091,0 0,77.683 L 0,29.898 0,0 Z" style="fill:#75766a;fill-opacity:1;fill-rule:nonzero;stroke:none" id="path74" inkscape:connector-curvature="0"/>
    </g>
    <g id="g76" transform="matrix(3.0166685,0,0,-3.0166685,275.0534,687.69712)">
      <path d="m 0,0 57.16,0 0,17.021 -38.065,0 0,13.636 33.152,0 0,17.021 -33.152,0 0,12.984 38.065,0 0,17.02 L 0,77.682 0,0 Z" style="fill:#75766a;fill-opacity:1;fill-rule:nonzero;stroke:none" id="path78" inkscape:connector-curvature="0"/>
    </g>
    <g id="g80" transform="matrix(3.0166685,0,0,-3.0166685,787.62255,636.02915)">
      <path d="m 0,0 -17.224,0 0,13.641 17.224,0 c 5.237,0 6.982,-3.491 6.982,-6.765 C 6.982,3.602 5.237,0 0,0 m -17.224,43.423 16.242,0 c 5.237,0 6.876,-3.274 6.876,-6.325 0,-3.056 -1.639,-6.33 -6.876,-6.33 l -16.242,0 0,12.655 z m 33.699,-20.73 c 2.403,1.639 8.51,6.547 8.51,15.387 0,13.418 -8.617,22.475 -24.767,22.475 l -36.532,0 0,-77.683 38.171,0 c 13.854,0 24.221,8.076 24.221,22.911 0,10.909 -6.436,14.947 -9.603,16.91" style="fill:#75766a;fill-opacity:1;fill-rule:nonzero;stroke:none" id="path82" inkscape:connector-curvature="0"/>
    </g>
    <g id="g84" transform="matrix(3.0166685,0,0,-3.0166685,610.48739,486.92005)">
      <path d="m 0,0 c 6.219,6.543 9.599,10.909 9.599,19.091 0,14.618 -10.474,23.457 -24.874,23.457 -13.53,0 -25.092,-8.399 -25.092,-23.675 l 0,-0.698 c 0,-4.956 4.018,-8.974 8.974,-8.974 4.956,0 8.974,4.018 8.974,8.974 0,0.094 -0.04,0.827 -0.038,1.133 0.191,5.63 3.991,7.094 7.182,7.094 4.584,0 6.982,-2.949 6.982,-7.205 0,-3.269 -1.088,-5.232 -3.926,-8.288 l -28.148,-30.551 0,-16.146 6.73,0 15.176,16.146 -0.001,0 L -0.013,-0.014 0,0 Z" style="fill:#75766a;fill-opacity:1;fill-rule:nonzero;stroke:none" id="path86" inkscape:connector-curvature="0"/>
    </g>
    <g id="g88" transform="matrix(3.0166685,0,0,-3.0166685,613.19033,594.87937)">
      <path d="m 0,0 0.63,0 c 4.458,0 8.073,3.614 8.073,8.073 0,4.459 -3.615,8.073 -8.073,8.073 l -0.63,0 -19.358,0 L -34.533,0 0,0 Z" style="fill:#9a9b92;fill-opacity:1;fill-rule:nonzero;stroke:none" id="path90" inkscape:connector-curvature="0"/>
    </g>
    <g id="g330" transform="matrix(3.0166685,0,0,-3.0166685,79.742225,799.73409)">
      <path d="m 0,0 0,8.986 -9.139,0 0,-8.986 -2.056,0 0,19.688 2.056,0 0,-8.821 9.139,0 0,8.821 2.055,0 L 2.055,0 0,0 Z" style="fill:#75766a;fill-opacity:1;fill-rule:nonzero;stroke:none" id="path332" inkscape:connector-curvature="0"/>
    </g>
    <g id="g334" transform="matrix(3.0166685,0,0,-3.0166685,127.54218,749.43477)">
      <path d="m 0,0 -3.624,-10.397 7.193,0 L 0,0 Z m 5.705,-16.674 -1.541,4.452 -8.409,0 -1.542,-4.452 -2.19,0 7.085,19.688 1.73,0 7.058,-19.688 -2.191,0 z" style="fill:#75766a;fill-opacity:1;fill-rule:nonzero;stroke:none" id="path336" inkscape:connector-curvature="0"/>
    </g>
    <g id="g338" transform="matrix(3.0166685,0,0,-3.0166685,188.31091,800.23426)">
      <path d="m 0,0 c -3.894,0 -6.706,2.737 -6.706,6.664 l 0,13.189 2.055,0 0,-13.023 c 0,-2.987 1.838,-4.95 4.651,-4.95 2.812,0 4.678,1.963 4.678,4.95 l 0,13.023 2.055,0 0,-13.189 C 6.733,2.737 3.893,0 0,0" style="fill:#75766a;fill-opacity:1;fill-rule:nonzero;stroke:none" id="path340" inkscape:connector-curvature="0"/>
    </g>
    <g id="g342" transform="matrix(3.0166685,0,0,-3.0166685,249.81451,746.01628)">
      <path d="m 0,0 0,-17.807 -2.055,0 0,17.807 -5.57,0 0,1.881 13.195,0 L 5.57,0 0,0 Z" style="fill:#75766a;fill-opacity:1;fill-rule:nonzero;stroke:none" id="path344" inkscape:connector-curvature="0"/>
    </g>
    <g id="g346" transform="matrix(3.0166685,0,0,-3.0166685,285.62164,799.73409)">
      <path d="m 0,0 0,19.688 11.952,0 0,-1.881 -9.897,0 0,-6.94 8.437,0 0,-1.881 -8.437,0 0,-7.106 9.897,0 0,-1.88 L 0,0 Z" style="fill:#75766a;fill-opacity:1;fill-rule:nonzero;stroke:none" id="path348" inkscape:connector-curvature="0"/>
    </g>
    <g id="g350" transform="matrix(3.0166685,0,0,-3.0166685,371.18859,799.73409)">
      <path d="m 0,0 0,19.688 11.952,0 0,-1.881 -9.897,0 0,-6.94 8.436,0 0,-1.881 -8.436,0 0,-7.106 9.897,0 0,-1.88 L 0,0 Z" style="fill:#75766a;fill-opacity:1;fill-rule:nonzero;stroke:none" id="path352" inkscape:connector-curvature="0"/>
    </g>
    <g id="g354" transform="matrix(3.0166685,0,0,-3.0166685,446.39559,800.23426)">
      <path d="m 0,0 c -1.893,0 -3.623,0.719 -4.921,2.046 -1.812,1.852 -1.812,3.788 -1.812,7.964 0,4.175 0,6.11 1.812,7.963 1.298,1.328 3.028,2.046 4.921,2.046 3.461,0 6.03,-2.156 6.679,-5.861 l -2.109,0 C 4.056,16.563 2.407,18.139 0,18.139 c -1.271,0 -2.488,-0.498 -3.326,-1.382 -1.217,-1.272 -1.352,-2.627 -1.352,-6.747 0,-4.12 0.135,-5.475 1.352,-6.747 C -2.488,2.378 -1.271,1.88 0,1.88 c 2.407,0 4.11,1.576 4.624,3.982 l 2.055,0 C 6.057,2.156 3.434,0 0,0" style="fill:#75766a;fill-opacity:1;fill-rule:nonzero;stroke:none" id="path356" inkscape:connector-curvature="0"/>
    </g>
    <g id="g358" transform="matrix(3.0166685,0,0,-3.0166685,516.5452,749.76933)">
      <path d="m 0,0 c -0.838,0.885 -2.055,1.41 -3.326,1.41 -1.271,0 -2.488,-0.525 -3.326,-1.41 -1.217,-1.272 -1.352,-2.599 -1.352,-6.719 0,-4.12 0.135,-5.447 1.352,-6.719 0.838,-0.886 2.055,-1.411 3.326,-1.411 1.271,0 2.488,0.525 3.326,1.411 1.217,1.272 1.352,2.599 1.352,6.719 C 1.352,-2.599 1.217,-1.272 0,0 m 1.595,-14.683 c -1.298,-1.327 -3.001,-2.046 -4.921,-2.046 -1.92,0 -3.623,0.719 -4.921,2.046 -1.812,1.852 -1.812,3.788 -1.812,7.964 0,4.175 0,6.11 1.812,7.963 1.298,1.328 3.001,2.047 4.921,2.047 1.92,0 3.623,-0.719 4.921,-2.047 1.812,-1.853 1.812,-3.788 1.812,-7.963 0,-4.176 0,-6.112 -1.812,-7.964" style="fill:#75766a;fill-opacity:1;fill-rule:nonzero;stroke:none" id="path360" inkscape:connector-curvature="0"/>
    </g>
    <g id="g362" transform="matrix(3.0166685,0,0,-3.0166685,549.58085,799.73409)">
      <path d="m 0,0 0,19.688 2.055,0 0,-17.808 9.843,0 0,-1.88 L 0,0 Z" style="fill:#75766a;fill-opacity:1;fill-rule:nonzero;stroke:none" id="path364" inkscape:connector-curvature="0"/>
    </g>
    <g id="g366" transform="matrix(3.0166685,0,0,-3.0166685,604.4777,799.73409)">
      <path d="m 0,0 0,19.688 11.952,0 0,-1.881 -9.897,0 0,-6.94 8.436,0 0,-1.881 -8.436,0 0,-7.106 9.897,0 0,-1.88 L 0,0 Z" style="fill:#75766a;fill-opacity:1;fill-rule:nonzero;stroke:none" id="path368" inkscape:connector-curvature="0"/>
    </g>
    <g id="g370" transform="matrix(3.0166685,0,0,-3.0166685,67.996766,865.94152)">
      <path d="m 0,0 -5.246,0 0,-7.218 5.246,0 c 2.379,0 3.867,1.411 3.867,3.623 C 3.867,-1.383 2.379,0 0,0 m -0.217,8.71 -5.029,0 0,-6.83 5.029,0 c 2.137,0 3.786,1.079 3.786,3.429 0,2.35 -1.649,3.401 -3.786,3.401 m 0.406,-17.807 -7.49,0 0,19.687 7.247,0 C 3.299,10.59 5.624,8.627 5.624,5.336 5.624,3.263 4.407,1.631 2.785,1.023 4.624,0.332 5.921,-1.3 5.921,-3.65 c 0,-3.568 -2.325,-5.447 -5.732,-5.447" style="fill:#75766a;fill-opacity:1;fill-rule:nonzero;stroke:none" id="path372" inkscape:connector-curvature="0"/>
    </g>
    <g id="g374" transform="matrix(3.0166685,0,0,-3.0166685,130.31703,839.66723)">
      <path d="m 0,0 -5.138,0 0,-7.217 5.138,0 c 2.244,0 3.839,1.189 3.839,3.595 C 3.839,-1.216 2.244,0 0,0 m 3.867,-17.807 -4.381,8.738 -4.624,0 0,-8.738 -2.055,0 0,19.688 7.382,0 c 3.353,0 5.705,-2.074 5.705,-5.475 0,-2.876 -1.703,-4.756 -4.19,-5.282 l 4.569,-8.931 -2.406,0 z" style="fill:#75766a;fill-opacity:1;fill-rule:nonzero;stroke:none" id="path376" inkscape:connector-curvature="0"/>
    </g>
    <g id="g378" transform="matrix(3.0166685,0,0,-3.0166685,189.69954,893.88552)">
      <path d="m 0,0 c -3.894,0 -6.706,2.737 -6.706,6.664 l 0,13.189 2.055,0 0,-13.023 c 0,-2.987 1.838,-4.95 4.651,-4.95 2.812,0 4.678,1.963 4.678,4.95 l 0,13.023 2.055,0 0,-13.189 C 6.733,2.737 3.894,0 0,0" style="fill:#75766a;fill-opacity:1;fill-rule:nonzero;stroke:none" id="path380" inkscape:connector-curvature="0"/>
    </g>
    <g id="g382" transform="matrix(3.0166685,0,0,-3.0166685,262.29507,893.38505)">
      <path d="M 0,0 -4.677,8.268 -9.383,0 l -2.325,0 5.895,10.093 -5.516,9.595 2.379,0 4.273,-7.771 4.272,7.771 2.379,0 L -3.569,10.093 2.38,0 0,0 Z" style="fill:#75766a;fill-opacity:1;fill-rule:nonzero;stroke:none" id="path384" inkscape:connector-curvature="0"/>
    </g>
    <g id="g386" transform="matrix(3.0166685,0,0,-3.0166685,287.25643,893.38505)">
      <path d="m 0,0 0,19.688 11.952,0 0,-1.881 -9.897,0 0,-6.94 8.436,0 0,-1.881 -8.436,0 0,-7.106 9.897,0 0,-1.88 L 0,0 Z" style="fill:#75766a;fill-opacity:1;fill-rule:nonzero;stroke:none" id="path388" inkscape:connector-curvature="0"/>
    </g>
    <g id="g390" transform="matrix(3.0166685,0,0,-3.0166685,344.35617,893.38505)">
      <path d="m 0,0 0,19.688 2.055,0 0,-17.808 9.843,0 0,-1.88 L 0,0 Z" style="fill:#75766a;fill-opacity:1;fill-rule:nonzero;stroke:none" id="path392" inkscape:connector-curvature="0"/>
    </g>
    <g id="g394" transform="matrix(3.0166685,0,0,-3.0166685,399.25206,893.38505)">
      <path d="m 0,0 0,19.688 2.056,0 0,-17.808 9.842,0 0,-1.88 L 0,0 Z" style="fill:#75766a;fill-opacity:1;fill-rule:nonzero;stroke:none" id="path396" inkscape:connector-curvature="0"/>
    </g>
    <g id="g398" transform="matrix(3.0166685,0,0,-3.0166685,454.1506,893.38505)">
      <path d="m 0,0 0,19.688 11.952,0 0,-1.881 -9.897,0 0,-6.94 8.436,0 0,-1.881 -8.436,0 0,-7.106 9.897,0 0,-1.88 L 0,0 Z" style="fill:#75766a;fill-opacity:1;fill-rule:nonzero;stroke:none" id="path400" inkscape:connector-curvature="0"/>
    </g>
    <g id="g402" transform="matrix(3.0166685,0,0,-3.0166685,526.17537,893.88552)">
      <path d="m 0,0 c -2.893,0 -4.785,0.746 -6.598,2.599 l 1.406,1.438 C -3.596,2.405 -2.109,1.88 0.054,1.88 2.867,1.88 4.597,3.235 4.597,5.53 4.597,6.553 4.3,7.438 3.678,7.991 3.056,8.544 2.569,8.71 1.163,8.931 L -1.081,9.29 c -1.514,0.25 -2.704,0.748 -3.542,1.494 -0.974,0.884 -1.461,2.102 -1.461,3.677 0,3.346 2.353,5.558 6.166,5.558 2.46,0 4.083,-0.635 5.732,-2.156 L 4.489,16.508 c -1.19,1.106 -2.46,1.687 -4.489,1.687 -2.568,0 -4.056,-1.466 -4.056,-3.651 0,-0.967 0.271,-1.741 0.866,-2.267 0.595,-0.526 1.596,-0.912 2.595,-1.078 L 1.514,10.867 C 3.326,10.59 4.219,10.204 5.03,9.484 6.084,8.572 6.652,7.217 6.652,5.585 6.652,2.128 4.003,0 0,0" style="fill:#75766a;fill-opacity:1;fill-rule:nonzero;stroke:none" id="path404" inkscape:connector-curvature="0"/>
    </g>
    <path d="m 565.16376,868.11171 22.35037,0 0,5.58989 -22.35037,0 0,-5.58989 z" style="fill:#75766a;fill-opacity:1;fill-rule:nonzero;stroke:none" id="path406" inkscape:connector-curvature="0"/>
    <g id="g408" transform="matrix(3.0166685,0,0,-3.0166685,632.3008,865.94152)">
      <path d="m 0,0 -5.246,0 0,-7.218 5.246,0 c 2.379,0 3.866,1.411 3.866,3.623 C 3.866,-1.383 2.379,0 0,0 m -0.216,8.71 -5.03,0 0,-6.83 5.03,0 c 2.136,0 3.785,1.079 3.785,3.429 0,2.35 -1.649,3.401 -3.785,3.401 m 0.405,-17.807 -7.49,0 0,19.687 7.247,0 C 3.299,10.59 5.624,8.627 5.624,5.336 5.624,3.263 4.407,1.631 2.785,1.023 4.624,0.332 5.921,-1.3 5.921,-3.65 c 0,-3.568 -2.325,-5.447 -5.732,-5.447" style="fill:#75766a;fill-opacity:1;fill-rule:nonzero;stroke:none" id="path410" inkscape:connector-curvature="0"/>
    </g>
    <g id="g412" transform="matrix(3.0166685,0,0,-3.0166685,694.62131,839.66723)">
      <path d="m 0,0 -5.138,0 0,-7.217 5.138,0 c 2.244,0 3.839,1.189 3.839,3.595 C 3.839,-1.216 2.244,0 0,0 m 3.867,-17.807 -4.381,8.738 -4.624,0 0,-8.738 -2.055,0 0,19.688 7.382,0 c 3.353,0 5.705,-2.074 5.705,-5.475 0,-2.876 -1.703,-4.756 -4.19,-5.282 l 4.569,-8.931 -2.406,0 z" style="fill:#75766a;fill-opacity:1;fill-rule:nonzero;stroke:none" id="path414" inkscape:connector-curvature="0"/>
    </g>
    <g id="g416" transform="matrix(3.0166685,0,0,-3.0166685,751.22897,843.08572)">
      <path d="m 0,0 -3.623,-10.397 7.192,0 L 0,0 Z m 5.705,-16.674 -1.541,4.452 -8.41,0 -1.541,-4.452 -2.19,0 7.084,19.688 1.731,0 7.057,-19.688 -2.19,0 z" style="fill:#75766a;fill-opacity:1;fill-rule:nonzero;stroke:none" id="path418" inkscape:connector-curvature="0"/>
    </g>
    <g id="g420" transform="matrix(3.0166685,0,0,-3.0166685,814.60918,865.94152)">
      <path d="m 0,0 -5.246,0 0,-7.218 5.246,0 c 2.379,0 3.866,1.411 3.866,3.623 C 3.866,-1.383 2.379,0 0,0 m -0.216,8.71 -5.03,0 0,-6.83 5.03,0 c 2.136,0 3.785,1.079 3.785,3.429 0,2.35 -1.649,3.401 -3.785,3.401 m 0.405,-17.807 -7.49,0 0,19.687 7.247,0 C 3.299,10.59 5.624,8.627 5.624,5.336 5.624,3.263 4.407,1.631 2.785,1.023 4.623,0.332 5.921,-1.3 5.921,-3.65 c 0,-3.568 -2.325,-5.447 -5.732,-5.447" style="fill:#75766a;fill-opacity:1;fill-rule:nonzero;stroke:none" id="path422" inkscape:connector-curvature="0"/>
    </g>
    <g id="g424" transform="matrix(3.0166685,0,0,-3.0166685,871.86917,843.08572)">
      <path d="m 0,0 -3.623,-10.397 7.192,0 L 0,0 Z m 5.705,-16.674 -1.541,4.452 -8.41,0 -1.541,-4.452 -2.19,0 7.084,19.688 1.731,0 7.057,-19.688 -2.19,0 z" style="fill:#75766a;fill-opacity:1;fill-rule:nonzero;stroke:none" id="path426" inkscape:connector-curvature="0"/>
    </g>
    <g id="g428" transform="matrix(3.0166685,0,0,-3.0166685,950.25887,893.38505)">
      <path d="m 0,0 -10.221,15.788 0,-15.788 -2.055,0 0,19.688 1.947,0 10.221,-15.734 0,15.734 2.055,0 L 1.947,0 0,0 Z" style="fill:#75766a;fill-opacity:1;fill-rule:nonzero;stroke:none" id="path430" inkscape:connector-curvature="0"/>
    </g>
    <g id="g432" transform="matrix(3.0166685,0,0,-3.0166685,998.13774,839.66723)">
      <path d="m 0,0 0,-17.807 -2.055,0 0,17.807 -5.571,0 0,1.881 13.196,0 L 5.57,0 0,0 Z" style="fill:#75766a;fill-opacity:1;fill-rule:nonzero;stroke:none" id="path434" inkscape:connector-curvature="0"/>
    </g>
    <g id="g436" transform="matrix(3.0166685,0,0,-3.0166685,393.85174,735.49684)">
      <path d="m 0,0 -1.768,0 2.357,4.165 2.304,0 L 0,0 Z" style="fill:#75766a;fill-opacity:1;fill-rule:nonzero;stroke:none" id="path438" inkscape:connector-curvature="0"/>
    </g>
  </g>
<script xmlns=""/></svg>